<svg xmlns="http://www.w3.org/2000/svg" viewBox="0 0 1600 600" preserveAspectRatio="xMidYMid slice">
  <defs>
    <linearGradient id="g" x1="0" y1="0" x2="1" y2="1">
      <stop offset="0%" stop-color="#1a3540"/>
      <stop offset="50%" stop-color="#2d4f5c"/>
      <stop offset="100%" stop-color="#0f2127"/>
    </linearGradient>
    <pattern id="grain" x="0" y="0" width="4" height="4" patternUnits="userSpaceOnUse">
      <circle cx="1" cy="1" r="0.3" fill="#ffffff" opacity="0.03"/>
    </pattern>
  </defs>
  <rect width="1600" height="600" fill="url(#g)"/>
  <rect width="1600" height="600" fill="url(#grain)"/>
  <!-- Abstract film strip suggestion on the right -->
  <g opacity="0.08" fill="#ffffff">
    <rect x="1300" y="50" width="260" height="500"/>
  </g>
  <g opacity="0.25" fill="#000000">
    <rect x="1300" y="50" width="260" height="40"/>
    <rect x="1300" y="510" width="260" height="40"/>
  </g>
  <g fill="#ffffff" opacity="0.3">
    <rect x="1320" y="110" width="18" height="14" rx="2"/>
    <rect x="1320" y="150" width="18" height="14" rx="2"/>
    <rect x="1320" y="190" width="18" height="14" rx="2"/>
    <rect x="1320" y="230" width="18" height="14" rx="2"/>
    <rect x="1320" y="270" width="18" height="14" rx="2"/>
    <rect x="1320" y="310" width="18" height="14" rx="2"/>
    <rect x="1320" y="350" width="18" height="14" rx="2"/>
    <rect x="1320" y="390" width="18" height="14" rx="2"/>
    <rect x="1320" y="430" width="18" height="14" rx="2"/>
    <rect x="1320" y="470" width="18" height="14" rx="2"/>
    <rect x="1520" y="110" width="18" height="14" rx="2"/>
    <rect x="1520" y="150" width="18" height="14" rx="2"/>
    <rect x="1520" y="190" width="18" height="14" rx="2"/>
    <rect x="1520" y="230" width="18" height="14" rx="2"/>
    <rect x="1520" y="270" width="18" height="14" rx="2"/>
    <rect x="1520" y="310" width="18" height="14" rx="2"/>
    <rect x="1520" y="350" width="18" height="14" rx="2"/>
    <rect x="1520" y="390" width="18" height="14" rx="2"/>
    <rect x="1520" y="430" width="18" height="14" rx="2"/>
    <rect x="1520" y="470" width="18" height="14" rx="2"/>
  </g>
</svg>
